<svg xmlns="http://www.w3.org/2000/svg" xmlns:xlink="http://www.w3.org/1999/xlink" id="Capa_1" x="0" y="0" version="1.1" viewBox="0 0 480 480" xml:space="preserve" style="enable-background:new 0 0 480 480"><linearGradient id="SVGID_1_" x1="-26.875" x2="-26.875" y1="557.891" y2="617.584" gradientTransform="matrix(8 0 0 -8 455 4941)" gradientUnits="userSpaceOnUse"><stop offset="0" style="stop-color:#006df0"/><stop offset="1" style="stop-color:#00e7f0"/></linearGradient><path style="fill:url(#SVGID_1_)" d="M456,464V56c0-4.418-3.582-8-8-8h-80c-4.418,0-8,3.582-8,8v408h-16V152c0-4.418-3.582-8-8-8	h-80c-4.418,0-8,3.582-8,8v312h-16V248c0-4.418-3.582-8-8-8h-80c-4.418,0-8,3.582-8,8v216h-16V344c0-4.418-3.582-8-8-8H32	c-4.418,0-8,3.582-8,8v120H0v16h480v-16H456z M40,464V352h64v112H40z M152,464V256h64v208H152z M264,464V160h64v304H264z M376,464	V64h64v400H376z"/><linearGradient id="SVGID_2_" x1="-34.228" x2="-34.228" y1="557.891" y2="617.584" gradientTransform="matrix(8 0 0 -8 455 4941)" gradientUnits="userSpaceOnUse"><stop offset="0" style="stop-color:#006df0"/><stop offset="1" style="stop-color:#00e7f0"/></linearGradient><path style="fill:url(#SVGID_2_)" d="M69.656,245.656L288,27.312V72h16V0h-72v16h44.688L58.344,234.344L69.656,245.656z"/></svg>